<svg xmlns="http://www.w3.org/2000/svg">
    <symbol id="html" viewBox="0 0 256 361"><path d="M255.555 70.766l-23.241 260.36-104.47 28.962-104.182-28.922L.445 70.766h255.11z" fill="#E44D26"/><path d="M128 337.95l84.417-23.403 19.86-222.49H128V337.95z" fill="#F16529"/><path d="M82.82 155.932H128v-31.937H47.917l.764 8.568 7.85 88.01H128v-31.937H85.739l-2.919-32.704zM90.018 236.542h-32.06l4.474 50.146 65.421 18.16.147-.04V271.58l-.14.037-35.568-9.604-2.274-25.471z" fill="#EBEBEB"/><path d="M24.18 0h16.23v16.035h14.847V0h16.231v48.558h-16.23v-16.26H40.411v16.26h-16.23V0zM92.83 16.103H78.544V0h44.814v16.103h-14.295v32.455h-16.23V16.103h-.001zM130.47 0h16.923l10.41 17.062L168.203 0h16.93v48.558h-16.164V24.49l-11.166 17.265h-.28L146.35 24.49v24.068h-15.88V0zM193.21 0h16.235v32.508h22.824v16.05h-39.06V0z"/><path d="M127.89 220.573h39.327l-3.708 41.42-35.62 9.614v33.226l65.473-18.145.48-5.396 7.506-84.08.779-8.576H127.89v31.937zM127.89 155.854v.078h77.143l.64-7.178 1.456-16.191.763-8.568H127.89v31.86z" fill="#FFF"/></symbol>
    <symbol id="css" viewBox="0 0 256 361"><g><path d="M127.843868,360.087912 L23.6617143,331.166242 L0.445186813,70.7657143 L255.554813,70.7657143 L232.31367,331.125451 L127.843868,360.087912 L127.843868,360.087912 Z" fill="#264DE4"></path><path d="M212.416703,314.546637 L232.277802,92.0573187 L128,92.0573187 L128,337.950242 L212.416703,314.546637 L212.416703,314.546637 Z" fill="#2965F1"></path><path d="M53.6685714,188.636132 L56.530989,220.572835 L128,220.572835 L128,188.636132 L53.6685714,188.636132 L53.6685714,188.636132 Z" fill="#EBEBEB"></path><path d="M47.917011,123.994725 L50.8202198,155.932132 L128,155.932132 L128,123.994725 L47.917011,123.994725 L47.917011,123.994725 Z" fill="#EBEBEB"></path><path d="M128,271.580132 L127.860044,271.617407 L92.2915165,262.013187 L90.0177582,236.54189 L57.957978,236.54189 L62.4323516,286.687648 L127.853011,304.848879 L128,304.808088 L128,271.580132 L128,271.580132 Z" fill="#EBEBEB"></path><path d="M60.4835165,0 L99.1648352,0 L99.1648352,16.1758242 L76.6593407,16.1758242 L76.6593407,32.3516484 L99.1648352,32.3516484 L99.1648352,48.5274725 L60.4835165,48.5274725 L60.4835165,0 L60.4835165,0 Z"></path><path d="M106.901099,0 L145.582418,0 L145.582418,14.0659341 L123.076923,14.0659341 L123.076923,16.8791209 L145.582418,16.8791209 L145.582418,49.2307692 L106.901099,49.2307692 L106.901099,34.4615385 L129.406593,34.4615385 L129.406593,31.6483516 L106.901099,31.6483516 L106.901099,0 L106.901099,0 Z"></path><path d="M153.318681,0 L192,0 L192,14.0659341 L169.494505,14.0659341 L169.494505,16.8791209 L192,16.8791209 L192,49.2307692 L153.318681,49.2307692 L153.318681,34.4615385 L175.824176,34.4615385 L175.824176,31.6483516 L153.318681,31.6483516 L153.318681,0 L153.318681,0 Z"></path><path d="M202.126769,188.636132 L207.892396,123.994725 L127.889582,123.994725 L127.889582,155.932132 L172.892132,155.932132 L169.98611,188.636132 L127.889582,188.636132 L127.889582,220.572835 L167.216527,220.572835 L163.509451,261.992791 L127.889582,271.606857 L127.889582,304.833407 L193.362286,286.687648 L193.842637,281.291956 L201.347516,197.212132 L202.126769,188.636132 L202.126769,188.636132 Z" fill="#FFFFFF"></path></g></symbol>
    <symbol id="sass" viewBox="0 0 512 384"><path fill="#CF649A" d="M440.6 220.6c-17.9.101-33.4 4.4-46.4 10.801-4.8-9.5-9.6-17.801-10.399-24-.9-7.2-2-11.601-.9-20.2C384 178.6 389 166.4 389 165.4c-.101-.9-1.101-5.3-11.4-5.4s-19.2 2-20.2 4.7-3 8.9-4.3 15.3c-1.8 9.4-20.6 42.7-31.3 60.2-3.5-6.8-6.5-12.8-7.101-17.601-.899-7.199-2-11.6-.899-20.199 1.1-8.601 6.1-20.8 6.1-21.8-.1-.9-1.1-5.3-11.399-5.4-10.301-.1-19.2 2-20.2 4.7s-2.1 9.1-4.3 15.3C281.9 201.4 256.9 257 250.4 271.5c-3.3 7.4-6.199 13.3-8.3 17.3-2.1 4-.1.3-.3.7-1.8 3.4-2.8 5.3-2.8 5.3v.101c-1.4 2.5-2.9 4.899-3.601 4.899-.5 0-1.5-6.7.2-15.899 3.7-19.301 12.7-49.4 12.601-50.5 0-.5 1.699-5.801-5.801-8.5-7.3-2.7-9.899 1.8-10.5 1.8-.6 0-1.1 1.6-1.1 1.6s8.1-33.899-15.5-33.899c-14.8 0-35.2 16.1-45.3 30.8-6.4 3.5-20 10.899-34.4 18.8-5.5 3-11.2 6.2-16.6 9.1L117.9 251.9c-28.6-30.5-81.5-52.1-79.3-93.1.8-14.9 6-54.2 101.601-101.8 78.3-39 141-28.3 151.899-4.5 15.5 34-33.5 97.2-114.899 106.3-31 3.5-47.301-8.5-51.4-13-4.3-4.7-4.9-4.9-6.5-4-2.6 1.4-1 5.6 0 8.1 2.4 6.3 12.4 17.5 29.4 23.1 14.899 4.9 51.3 7.6 95.3-9.4 49.3-19.1 87.8-72.1 76.5-116.4-11.5-45.1-86.3-59.9-157-34.8C121.4 27.4 75.8 50.8 43 81.5 4 117.9-2.2 149.7.4 162.9c9.101 47.1 74 77.8 100 100.5-1.3.699-2.5 1.399-3.6 2-13 6.399-62.5 32.3-74.9 59.699-14 31 2.2 53.301 13 56.301 33.4 9.3 67.6-7.4 86.1-34.9 18.399-27.5 16.2-63.2 7.7-79.5l-.301-.6 10.2-6c6.601-3.9 13.101-7.5 18.8-10.601-3.199 8.7-5.5 19-6.699 34-1.4 17.601 5.8 40.4 15.3 49.4 4.2 3.899 9.2 4 12.3 4 11 0 16-9.101 21.5-20 6.8-13.3 12.8-28.7 12.8-28.7s-7.5 41.7 13 41.7c7.5 0 15-9.7 18.4-14.7v.1s.2-.3.6-1a36.13 36.13 0 0 0 1.2-1.899v-.2c3-5.2 9.7-17.1 19.7-36.8 12.899-25.4 25.3-57.2 25.3-57.2s1.2 7.8 4.9 20.6c2.199 7.601 6.999 15.9 10.699 24-3 4.2-4.8 6.601-4.8 6.601l.1.1c-2.399 3.2-5.1 6.601-7.899 10-10.2 12.2-22.4 26.101-24 30.101-1.9 4.699-1.5 8.199 2.2 11 2.7 2 7.5 2.399 12.6 2 9.2-.601 15.6-2.9 18.8-4.301 5-1.8 10.7-4.5 16.2-8.5 10-7.399 16.1-17.899 15.5-31.899-.3-7.7-2.8-15.3-5.9-22.5.9-1.3 1.801-2.601 2.7-4 15.8-23.101 28-48.5 28-48.5s1.2 7.8 4.9 20.6c1.899 6.5 5.7 13.601 9.1 20.601-14.8 12.1-24.1 26.1-27.3 35.3-5.9 17-1.3 24.7 7.4 26.5 3.899.8 9.5-1 13.699-2.8 5.2-1.7 11.5-4.601 17.301-8.9 10-7.4 19.6-17.7 19.1-31.6-.3-6.4-2-12.7-4.3-18.7 12.6-5.2 28.899-8.2 49.6-5.7 44.5 5.2 53.3 33 51.601 44.6-1.7 11.601-11 18-14.101 20-3.1 1.9-4.1 2.601-3.8 4 .4 2.101 1.8 2 4.5 1.601 3.7-.601 23.4-9.5 24.2-30.899 1.2-27.504-24.9-57.504-71.2-57.205zM97.4 336.3c-14.7 16.1-35.4 22.2-44.2 17-9.5-5.5-5.801-29.2 12.3-46.3 11-10.4 25.3-20 34.7-25.9 2.1-1.3 5.3-3.199 9.1-5.5.6-.399 1-.6 1-.6.7-.4 1.5-.9 2.3-1.4 6.7 24.4.3 45.8-15.2 62.7zm107.5-73.1c-5.1 12.5-15.9 44.6-22.4 42.8-5.601-1.5-9-25.8-1.101-49.8 4-12.101 12.5-26.5 17.5-32.101 8.101-9 16.9-12 19.101-8.3 2.6 4.801-9.9 39.601-13.1 47.401zm88.7 42.4c-2.2 1.101-4.2 1.9-5.1 1.301-.7-.4.899-1.9.899-1.9s11.1-11.9 15.5-17.4c2.5-3.199 5.5-6.899 8.7-11.1v1.2C313.6 292.1 299.8 301.7 293.6 305.6zm68.399-15.6c-1.6-1.2-1.399-4.9 4-16.5 2.101-4.6 6.9-12.3 15.2-19.6 1 3 1.601 5.899 1.5 8.6-.099 18-12.899 24.7-20.7 27.5z"/></symbol>
    <symbol id="js" viewBox="0 0 256 256"><path d="M0 0h256v256H0V0z" fill="#F7DF1E"/><path fill="#000" d="M67.312 213.932l19.59-11.856c3.78 6.701 7.218 12.371 15.465 12.371 7.905 0 12.89-3.092 12.89-15.12v-81.798h24.057v82.138c0 24.917-14.606 36.259-35.916 36.259-19.245 0-30.416-9.967-36.087-21.996M152.381 211.354l19.588-11.341c5.157 8.421 11.859 14.607 23.715 14.607 9.969 0 16.325-4.984 16.325-11.858 0-8.248-6.53-11.17-17.528-15.98l-6.013-2.58c-17.357-7.387-28.87-16.667-28.87-36.257 0-18.044 13.747-31.792 35.228-31.792 15.294 0 26.292 5.328 34.196 19.247L210.29 147.43c-4.125-7.389-8.591-10.31-15.465-10.31-7.046 0-11.514 4.468-11.514 10.31 0 7.217 4.468 10.14 14.778 14.608l6.014 2.577c20.45 8.765 31.963 17.7 31.963 37.804 0 21.654-17.012 33.51-39.867 33.51-22.339 0-36.774-10.654-43.819-24.574"/></symbol>
    <symbol id="jquery" viewBox="0 0 512 116"><g><path d="M489.718 8.646l21.42.118s-39.824 53.964-43.076 58.362c-1.056 1.424-2.66 2.96-3.474 4.864-2.057 4.786-4.169 15.285-4.169 15.285l-19.599.098s3.05-10.944 2.924-16.773c-.11-5.092-2.71-10.178-4.168-15.285-1.474-5.17-3.475-15.286-3.475-15.286h20.15l2.779 11.117 30.688-42.5"/><path d="M449.157 20.027c3.953 2.383 6.379 15.529 6.379 15.529s-20.684.305-31.94.305h-9.727l-11.812 51.414h-18.064s11.242-55.874 13.896-66.004c.86-3.28 5.892-2.717 14.389-2.717h13.569c8.762 0 19.003-1.119 23.31 1.473M365.06 45.067s.563-3.3-1.91-7.122c-2.113-3.258-4.064-4.016-9.623-4.19-15.695-.493-15.39 11.138-15.39 11.138l26.923.174zm17.022-13.32c2.3 8.297-2.084 27.792-2.084 27.792s-22.894-.382-35.434 0c-3.899.119-8.566-.424-9.727 1.39-1.633 2.542.597 6.455 2.487 8.108 2.175 1.903 6.412 2.12 7.935 2.313 10.178 1.293 31.48.334 31.48.334l-3.69 16.34s-30.103 1.51-45.16-2.084c-2.973-.708-5.76-2.139-7.643-4.168-.514-.555-.96-1.312-1.446-1.966-.388-.522-1.52-2.237-2.028-3.593-3.439-9.164.403-26.72 4.169-36.128.437-1.09.986-2.473 1.564-3.648.722-1.465 1.333-3.119 1.91-3.995.388-.604.869-.993 1.272-1.563.465-.674 1.006-1.327 1.507-1.91 1.39-1.612 2.967-2.752 4.864-4.168 6.273-4.698 17.626-8.345 31.265-6.949 5.135.528 12.89 2.362 16.675 7.643 1.014 1.41 1.515 4.21 2.084 6.253zM299.229 18.49l17.516-.103s-9.762 46.307-14.737 68.888h-20.15c-14.082 0-26.623 1.744-31.959-8.338-5.176-9.789-.236-25.887 2.084-36.824 1.64-7.74 5.094-23.56 5.094-23.56l18.148-.166s-5.128 24.63-7.262 36.928c-.764 4.405-2.34 8.553-.694 11.81 1.563 3.1 3.752 3.322 10.421 3.475 2.113.05 9.033 0 9.033 0l12.506-52.11M217.244 51.84c1.834-6.516 4.509-13.582 4.169-19.454-.368-6.28-5.634-11.998-9.032-13.2-10.234-3.613-19.815 1.438-23.623 5.558-4.926 5.336-6.594 11.569-8.338 20.15-1.298 6.37-2.362 13.095 0 18.063 4.182 8.783 17.224 6.865 31.266 6.949 2.084-5.586 3.807-11.86 5.558-18.066zm24.318-25.706c2 14.548-5.676 30.606-10.964 44.57 5.392.487 10.117-.075 10.457.327.354.521-3.614 16.668-4.997 16.71-4.279.111-18.459.229-24.372.229-19.295 0-37.345 1.257-46.55-8.337-3.738-3.898-6.323-10.583-6.949-15.286-1.042-7.851.264-16.495 2.085-23.622 1.647-6.435 3.758-12.507 6.948-18.066C175.328 8.507 189.432-1.998 213.075.427c4.586.472 11.172 2.48 15.286 4.863.284.167 1.279.959 1.507 1.098 5.559 3.537 10.624 11.978 11.694 19.746zM156.193 18.574c-1.167 5.315-2.334 11.34-3.564 16.592h-19.454c1.507-5.822 2.661-11.61 4.169-16.675 6.225 0 12.013.083 18.85.083M132.48 40.03h18.76c-2.453 13.576-7.31 35.475-11.117 50.719-2.383 9.54-3.974 16.501-10.422 21.538-.577.452-.91.237-1.39.695-1.188 1.133-6.684 2.447-9.726 2.779-4.947.536-10.54.07-16.62-.055 1.591-5.815 3.391-12.798 4.809-18.01 14.82 1.794 15.195-12.214 18.064-25.706 1.66-7.796 6.691-28.834 7.642-31.96"/><g fill="#21609B"><path d="M88.708 75.464l-.402 1.042c-6.85 13.34-18.989 21.524-36.303 21.885-8.094.167-15.806-1.91-20.844-4.168C20.287 89.338 11.142 80.279 6.148 70.6c-7.164-13.875-8.456-33.176 6.44-47.592.23 0-1.807 3.126-1.577 3.126l-.41 1.334C-.133 61.074 32.938 89.874 65.086 86.58c7.726-.792 17.578-5.023 23.622-11.116" /><path d="M69.254 61.568c8.088.055 16.536-3.725 21.539-9.032-4.377 11.11-17.05 18.251-34.044 15.98-14.23-1.904-27.785-16.223-29.181-30.571-1.021-10.442 2.618-16.674 8.615-24.234-2.084 3.954-2.863 7.003-3.057 8.948-2.278 22.588 18.044 38.79 36.128 38.909" /><path d="M89.98 33.512c-1.257 2.884-8.496 8.33-11.693 9.011-12.659 2.697-20.766-3.306-25.013-10.137-.631-1.02-1.798-3.806-2.007-4.515-1.647-5.6-.89-14.07 4.023-18.454-1.48 4.169-1.696 9.011-.917 12.159.472 1.903 1.91 5.226 3.349 7.316 2.618 3.807 4.279 4.732 7.642 6.754 1.515.91 3.14 1.64 3.842 1.84 3.189.939 9.922 3.412 20.775-3.974" /></g></g></symbol>
    <symbol id="bootstrap" viewBox="0 0 256 256"><path d="M0 222.991C0 241.223 14.779 256 33.009 256H222.99C241.223 256 256 241.221 256 222.991V33.01C256 14.777 241.221 0 222.991 0H33.01C14.777 0 0 14.779 0 33.009V222.99z" fill="#563D7C"/><path d="M106.158 113.238V76.985h31.911c3.04 0 5.97.253 8.792.76 2.822.506 5.319 1.41 7.49 2.713 2.17 1.303 3.907 3.112 5.21 5.427 1.302 2.316 1.954 5.283 1.954 8.9 0 6.513-1.954 11.217-5.862 14.111-3.907 2.895-8.9 4.342-14.979 4.342h-34.516zM72.075 50.5v155h75.112c6.947 0 13.713-.868 20.298-2.605 6.585-1.737 12.446-4.414 17.584-8.032 5.137-3.618 9.226-8.286 12.265-14.002 3.04-5.717 4.559-12.483 4.559-20.298 0-9.697-2.352-17.982-7.055-24.856-4.704-6.875-11.832-11.687-21.384-14.437 6.947-3.328 12.194-7.598 15.74-12.808 3.545-5.21 5.318-11.722 5.318-19.538 0-7.236-1.194-13.314-3.582-18.235-2.388-4.92-5.753-8.864-10.095-11.831-4.341-2.967-9.551-5.102-15.63-6.404-6.078-1.303-12.808-1.954-20.189-1.954H72.075zm34.083 128.515v-42.549h37.121c7.381 0 13.315 1.7 17.802 5.102 4.486 3.401 6.73 9.081 6.73 17.041 0 4.053-.688 7.381-2.063 9.986-1.375 2.605-3.22 4.668-5.536 6.187-2.315 1.52-4.993 2.605-8.032 3.257-3.04.65-6.223.976-9.552.976h-36.47z" fill="#FFF"/></symbol>
    <symbol id="react" viewBox="0 0 600 600"><circle fill="#00D8FF" class="st0" cx="299.5" cy="299.6" r="50.2"/><g><path fill="#00D8FF" class="st0" d="M299.5,414.6c-70.5,0-132.1-8.3-178.2-24.1c-29.9-10.2-55.3-23.8-73.4-39.3c-19.2-16.4-29.4-34.3-29.4-51.6   c0-33.2,36.4-65.7,97.5-86.9c50-17.4,115.2-27.1,183.4-27.1c67,0,131.3,9.4,181,26.6c29.1,10,53.6,23,71,37.4   c18.9,15.8,28.9,33.1,28.9,50c0,34.5-40.7,69.4-106.3,91.1C427.6,406.1,365.6,414.6,299.5,414.6z M299.5,209.6   c-64.7,0-128.7,9.4-175.5,25.7c-56.2,19.6-81.4,46.4-81.4,64.3c0,18.6,27.1,47.9,86.5,68.2c43.6,14.9,102.6,22.8,170.4,22.8   c63.6,0,122.9-8,167-22.7c61.7-20.5,89.9-49.8,89.9-68.3c0-9.5-7.2-20.7-20.3-31.6c-15.1-12.6-37.1-24.1-63.4-33.2   C425.4,218.6,363.9,209.6,299.5,209.6z"/></g><g><path fill="#00D8FF" class="st0" d="M185.6,549.8c-10.2,0-19.2-2.2-26.8-6.6c-28.7-16.6-38.7-64.4-26.6-127.9c9.9-52.1,34.1-113.3,68.2-172.4   c33.5-58,73.7-109,113.4-143.5c23.2-20.2,46.7-35,67.9-42.8c23.1-8.5,43.1-8.5,57.7-0.1c29.9,17.2,39.8,70,25.8,137.6   c-9.9,48-33.5,105.9-66.5,163.2c-35.2,61-73.2,110.2-109.9,142.3c-23.8,20.8-48.3,36-70.7,43.9   C206.4,547.7,195.4,549.8,185.6,549.8z M210.7,248.9l10.4,6c-32.3,56-56.2,116.1-65.4,164.9c-11.1,58.5-0.4,93.7,15,102.6   c3.8,2.2,8.8,3.4,14.9,3.4c19.9,0,51.2-12.6,87.4-44.2c34.7-30.3,71-77.5,104.9-136.2c31.8-55.1,54.4-110.5,63.8-156   c13.1-63.7,1.8-102.7-14.3-112c-8.2-4.7-21.5-4.1-37.5,1.8c-18.5,6.8-39.4,20.1-60.4,38.4c-37.7,32.8-76.2,81.6-108.4,137.4   L210.7,248.9z"/></g><g><path fill="#00D8FF" class="st0" d="M413.4,550.1c-27.2,0-61.7-16.4-97.7-47.4c-40.2-34.6-81.1-86.1-115.3-145.2v0c-33.6-58-57.6-118.3-67.7-170   c-5.9-30.2-7-57.9-3.2-80.2c4.2-24.3,14.1-41.6,28.8-50.1c29.8-17.3,80.5,0.5,132.1,46.4c36.6,32.5,75,81.9,108.1,139.1   c35.3,61,59,118.5,68.4,166.3c6.1,31,7.1,59.8,2.8,83.2c-4.6,24.9-15,42.6-30,51.3C432.2,547.9,423.3,550.1,413.4,550.1z    M221.2,345.5c32.4,56,72.6,106.7,110.2,139c45.1,38.8,80.9,47.2,96.4,38.2c16.1-9.3,27.9-47.4,15.7-109   c-9-45.2-31.7-100.2-65.7-158.9c-31.9-55.1-68.6-102.4-103.3-133.2C225.9,78.4,186.5,68.7,170.4,78c-8.2,4.7-14.3,16.6-17.2,33.4   c-3.3,19.4-2.3,44.2,3.1,71.5C165.9,232,188.9,289.7,221.2,345.5L221.2,345.5z"/></g></symbol>
    <symbol id="redux" viewBox="0 0 256 244"><path d="M177.381 169.733c9.447-.978 16.614-9.122 16.288-18.896-.325-9.773-8.47-17.592-18.243-17.592h-.651c-10.1.326-17.918 8.796-17.592 18.895.326 4.887 2.28 9.122 5.212 12.054-11.076 21.828-28.016 37.791-53.426 51.148-17.266 9.122-35.183 12.38-53.1 10.1-14.66-1.955-26.062-8.47-33.23-19.222-10.424-15.963-11.401-33.23-2.605-50.496 6.19-12.38 15.962-21.502 22.152-26.063-1.303-4.235-3.258-11.402-4.235-16.614-47.237 34.207-42.35 80.468-28.016 102.295 10.75 16.29 32.577 26.389 56.684 26.389 6.515 0 13.03-.652 19.546-2.28 41.699-8.145 73.299-32.905 91.216-69.718zm57.336-40.397c-24.759-28.995-61.245-44.958-102.944-44.958h-5.212c-2.932-5.864-9.122-9.774-15.963-9.774h-.652C99.848 74.93 92.03 83.4 92.355 93.5c.326 9.773 8.47 17.592 18.243 17.592h.651c7.167-.326 13.357-4.887 15.963-11.077h5.864c24.759 0 48.214 7.167 69.39 21.176 16.288 10.751 28.016 24.76 34.531 41.7 5.538 13.683 5.212 27.04-.652 38.443-9.121 17.266-24.432 26.714-44.63 26.714-13.031 0-25.41-3.91-31.926-6.842-3.583 3.258-10.099 8.47-14.66 11.729 14.009 6.515 28.343 10.099 42.025 10.099 31.274 0 54.404-17.267 63.2-34.533 9.447-18.896 8.795-51.474-15.637-79.165zM69.225 175.27c.326 9.774 8.47 17.592 18.243 17.592h.652c10.099-.325 17.917-8.796 17.591-18.895-.325-9.774-8.47-17.592-18.243-17.592h-.651c-.652 0-1.63 0-2.28.325-13.357-22.153-18.895-46.26-16.94-72.323 1.302-19.547 7.818-36.488 19.22-50.497 9.447-12.054 27.69-17.918 40.07-18.243 34.531-.652 49.19 42.351 50.168 59.618 4.235.977 11.402 3.258 16.289 4.887C189.434 27.366 156.857 0 125.584 0c-29.32 0-56.359 21.176-67.11 52.451-14.985 41.7-5.212 81.771 13.031 113.372-1.628 2.28-2.606 5.864-2.28 9.448z" fill="#764ABC"/></symbol>
    <symbol id="gulp" viewBox="0 0 256 566"><path d="M197.28 548.749l5.427-90.43 14.985-25.58s-34.106 13.952-91.205 13.952c-57.1 0-90.689-13.694-90.689-13.694l16.794 27.904 5.941 87.848c0 9.418 31.059 17.052 69.374 17.052 38.313 0 69.373-7.634 69.373-17.052M180.161 126.454l11.391-45.025 63.081-66.376L238.007.892l-66.784 70.707-13.226 53.793a886.14 886.14 0 0 0-29.873-.497c-70.336 0-127.355 8.016-127.355 17.902 0 9.887 57.019 17.902 127.355 17.902 70.335 0 127.353-8.015 127.353-17.902 0-7.28-30.924-13.546-75.316-16.343" fill="#D34A47"/><path d="M173.535 151.669s-2.467.553-9.724.584c-7.259.03-12.413-.047-14.466-1.917-.552-.502-.854-1.499-.851-2.174.006-1.285.918-2.042 2.08-2.516l1.099 1.724c-.478.165-.751.36-.752.568-.004.976 7.422 1.644 13.102 1.572 5.681-.07 12.545-.538 12.551-1.5 0-.291-.519-.565-1.422-.781l1.094-1.712c1.472.457 2.757 1.34 2.754 2.868-.014 2.598-3.32 2.993-5.465 3.284" fill="#FFF"/><path d="M254.509 15.184c1.586-1.832-.821-6.518-5.376-10.465C244.576.774 239.596-.94 238.007.892c-1.587 1.832.821 6.518 5.378 10.463 4.555 3.946 9.537 5.662 11.124 3.829M194.246 327.865c-1.495-14.384 31.462-35.216 23.004-35.883-18.208 1.041-27.27 21.338-36.431 42.596-3.357 7.791-14.844 41.013-22.378 36.923-7.532-4.088 9.765-31.407 14.613-47.631-5.594 4.102-26.109 20.041-31.396 5.114-8.5 7.219-26.663 11.13-24.614-7.833-4.522 8.01-14.671 19.193-26.853 14.546-15.998-6.101 9.27-57.062 15.553-54.491 6.284 2.57-1.268 14.179-3.246 18.687-4.35 9.921-9.375 22.393-6.018 24.946 5.751 4.374 21.401-16.547 21.749-17.007 2.927-3.867 11.266-29.166 17.987-26.261 6.721 2.905-16.764 36.308-7.983 42.937 1.771 1.338 9.017-.825 13.425-5.594 2.852-3.085 1.871-9.918 11.378-32.59 9.507-22.671 17.98-50.905 24.5-48.754 6.52 2.15 1.146 16.641-1.193 22.043-10.976 25.354-29.956 67.241-21.005 64.07 8.951-3.17 13.612-3.356 22.377-13.613 8.765-10.257 8.361-27.152 14.203-26.793 5.844.36 4.863 5.777 3.446 9.902 5.75-6.58 27.256-20.438 32.448-6.713 6.15 16.249-30.769 39.72-21.564 38.523 8.975-1.167 23.515-10.376 29.723-18.749l17.088-153.626s-17.195 14.23-126.589 14.23c-109.395 0-124.811-13.934-124.811-13.934l14.548 140.224c7.722-21.947 26.059-66.339 54.963-64.849 13.148.678 30.7 25.995 15.665 26.853-6.364.362-7.01-12.637-14.546-14.546-5.438-1.378-13.009 3.043-17.902 7.833-9.758 9.55-30.745 47.229-27.972 66.014 3.533 23.949 33.048-8.322 38.042-17.903 3.517-6.749 5.893-26.745 13.585-24.647 7.693 2.098-.671 22.734-6.247 40.979-6.264 20.487-9.557 42.098-17.408 39.612-7.852-2.484 4.938-28.932 4.475-33.566-7.38 6.809-20.976 24.047-38.37 15.515l9.035 87.078s24.013 18.973 96.35 18.973c72.337 0 97.239-18.677 97.239-18.677l11.219-100.857c-9.179 8.938-38.229 24.81-40.089 6.919" fill="#D34A47"/></symbol>
    <symbol id="webpack" viewBox="0 0 32 32"><path d="M29.54 24.663L16.57 32v-5.713l8.08-4.446zm.888-.803V8.52l-4.744 2.742v9.862zm-27.966.803L15.43 32v-5.713L7.345 21.84zm-.888-.803V8.52l4.744 2.742v9.862zM2.13 7.524L15.43 0v5.522L6.84 10.25zm27.74 0L16.57 0v5.522l8.59 4.723z" fill="#8ed6fb"/><path d="M15.43 25.237L7.456 20.85v-8.684l7.974 4.604zm1.14 0l7.975-4.383v-8.69L16.57 16.77zm-.57-8.8zm-8.004-5.275L16 6.763l8.004 4.4L16 15.783z" fill="#1c78c0"/></symbol>
    <symbol id="responsive" viewBox="0 0 512 512">
        <circle style="fill:#69CDFF;" cx="267" cy="256" r="245"/>
        <rect x="185.72" y="358.53" style="fill:#445EA0;" width="78.71" height="41.23"/>
        <rect x="185.72" y="358.53" style="fill:#2E4C89;" width="19.842" height="41.23"/>
        <path style="fill:#293D7C;" d="M316.856,398.763H127.56c-2.806,0-5.101,2.296-5.101,5.102v25.571c0,2.806,2.296,5.102,5.101,5.102
            h189.296L316.856,398.763L316.856,398.763z"/>
        <path style="fill:#1A2B63;" d="M142.301,429.435v-25.571c0-2.806,2.296-5.102,5.102-5.102H127.56c-2.806,0-5.101,2.296-5.101,5.102
            v25.571c0,2.806,2.296,5.102,5.101,5.102h19.842C144.597,434.537,142.301,432.241,142.301,429.435z"/>
        <path style="fill:#293D7C;" d="M445.054,58.964H5.102C2.296,58.964,0,61.26,0,64.066V354.43c0,2.807,2.296,5.102,5.102,5.102
            h311.754V206.768c0-3.859,3.14-7,7-7h126.3V64.066C450.156,61.26,447.86,58.964,445.054,58.964z"/>
        <path style="fill:#FFFFFF;" d="M22.396,308.514c0,1.684,1.377,3.06,3.061,3.06h291.399V206.768c0-3.859,3.14-7,7-7H427.76v-90.77
            H22.396V308.514z"/>
        <path style="fill:#D9EAFC;" d="M42.239,308.514V108.998H22.396v199.516c0,1.684,1.377,3.06,3.061,3.06H45.3
            C43.616,311.574,42.239,310.197,42.239,308.514z"/>
        <circle style="fill:#445EA0;" cx="225.08" cy="335.46" r="13.774"/>
        <path style="fill:#C3DDF4;" d="M316.856,223.146h-53.424c-1.65,0-3,1.35-3,3v59.639c0,1.65,1.35,3,3,3h53.424V223.146z"/>
        <path style="fill:#AEC1ED;" d="M280.274,285.785v-59.639c0-1.65,1.35-3,3-3h-19.842c-1.65,0-3,1.35-3,3v59.639c0,1.65,1.35,3,3,3
            h19.842C281.624,288.785,280.274,287.435,280.274,285.785z"/>
        <path style="fill:#C3DDF4;" d="M323.856,199.768h46.618v-65.382c0-2.75-2.25-5-5-5H84.682c-2.75,0-5,2.25-5,5v66.525
            c0,2.75,2.25,5,5,5h232.233C317.339,202.455,320.288,199.768,323.856,199.768z"/>
        <path style="fill:#AEC1ED;" d="M99.524,200.91v-66.525c0-2.75,2.25-5,5-5H84.682c-2.75,0-5,2.25-5,5v66.525c0,2.75,2.25,5,5,5
            h19.842C101.774,205.91,99.524,203.66,99.524,200.91z"/>
        <path style="fill:#FFAF10;" d="M424.699,84.983H25.457c-1.684,0-3.061,1.377-3.061,3.062v21.953H427.76V88.045
            C427.76,86.36,426.382,84.983,424.699,84.983z"/>
        <path style="fill:#FF9518;" d="M45.3,84.983H25.457c-1.684,0-3.061,1.377-3.061,3.062v21.953h19.842V88.045
            C42.239,86.36,43.616,84.983,45.3,84.983z"/>
        <g>
            <path style="fill:#5DC1D8;" d="M171.504,238.979h-84.17c-4.142,0-7.5-3.357-7.5-7.5s3.358-7.5,7.5-7.5h84.17
                c4.142,0,7.5,3.357,7.5,7.5S175.646,238.979,171.504,238.979z"/>
            <path style="fill:#5DC1D8;" d="M171.504,263.466h-84.17c-4.142,0-7.5-3.357-7.5-7.5s3.358-7.5,7.5-7.5h84.17
                c4.142,0,7.5,3.357,7.5,7.5C179.004,260.108,175.646,263.466,171.504,263.466z"/>
            <path style="fill:#5DC1D8;" d="M171.504,287.953h-84.17c-4.142,0-7.5-3.357-7.5-7.5s3.358-7.5,7.5-7.5h84.17
                c4.142,0,7.5,3.357,7.5,7.5S175.646,287.953,171.504,287.953z"/>
            <path style="fill:#5DC1D8;" d="M237.56,238.979h-43.326c-4.142,0-7.5-3.357-7.5-7.5s3.358-7.5,7.5-7.5h43.326
                c4.142,0,7.5,3.357,7.5,7.5S241.702,238.979,237.56,238.979z"/>
            <path style="fill:#5DC1D8;" d="M237.56,263.466h-43.326c-4.142,0-7.5-3.357-7.5-7.5s3.358-7.5,7.5-7.5h43.326
                c4.142,0,7.5,3.357,7.5,7.5C245.06,260.108,241.702,263.466,237.56,263.466z"/>
            <path style="fill:#5DC1D8;" d="M237.56,287.953h-43.326c-4.142,0-7.5-3.357-7.5-7.5s3.358-7.5,7.5-7.5h43.326
                c4.142,0,7.5,3.357,7.5,7.5S241.702,287.953,237.56,287.953z"/>
        </g>
        <path style="fill:#445EA0;" d="M504,198.768c4.4,0,8,3.6,8,8v241.77c0,4.4-3.6,8-8,8H323.856c-4.4,0-8-3.6-8-8v-241.77
            c0-4.4,3.6-8,8-8L504,198.768L504,198.768z"/>
        <path style="fill:#FFFFFF;" d="M337.567,425.125c-2.75,0-5-2.25-5-5V219.18c0-2.75,2.25-5,5-5H490.29c2.75,0,5,2.25,5,5v200.945
            c0,2.75-2.25,5-5,5H337.567z"/>
        <path style="fill:#D9EAFC;" d="M352.409,420.125V219.18c0-2.75,2.25-5,5-5h-19.842c-2.75,0-5,2.25-5,5v200.945c0,2.75,2.25,5,5,5
            h19.842C354.659,425.125,352.409,422.875,352.409,420.125z"/>
        <path style="fill:#445EA0;" d="M404.567,445.125c-2.75,0-5-2.25-5-5v-1.945c0-2.75,2.25-5,5-5h18.723c2.75,0,5,2.25,5,5v1.945
            c0,2.75-2.25,5-5,5H404.567z"/>
        <path style="fill:#FFAF10;" d="M495.29,233.473V219.18c0-2.75-2.25-5-5-5H337.567c-2.75,0-5,2.25-5,5v14.293L495.29,233.473
            L495.29,233.473z"/>
        <path style="fill:#FF9518;" d="M357.409,214.18h-19.842c-2.75,0-5,2.25-5,5v14.293h19.842V219.18
            C352.409,216.43,354.659,214.18,357.409,214.18z"/>
        <g>
            <path style="fill:#5DC1D8;" d="M448.013,324.933h-68.169c-4.142,0-7.5-3.357-7.5-7.5s3.358-7.5,7.5-7.5h68.169
                c4.142,0,7.5,3.357,7.5,7.5C455.513,321.575,452.155,324.933,448.013,324.933z"/>
            <path style="fill:#5DC1D8;" d="M448.013,348.06h-68.169c-4.142,0-7.5-3.357-7.5-7.5c0-4.142,3.358-7.5,7.5-7.5h68.169
                c4.142,0,7.5,3.358,7.5,7.5C455.513,344.703,452.155,348.06,448.013,348.06z"/>
            <path style="fill:#5DC1D8;" d="M448.013,371.185h-68.169c-4.142,0-7.5-3.357-7.5-7.5c0-4.142,3.358-7.5,7.5-7.5h68.169
                c4.142,0,7.5,3.358,7.5,7.5C455.513,367.828,452.155,371.185,448.013,371.185z"/>
        </g>
        <path style="fill:#C3DDF4;" d="M479.756,292.257c0,2.75-2.25,5-5,5H353.101c-2.75,0-5-2.25-5-5v-41.244c0-2.75,2.25-5,5-5h121.655
            c2.75,0,5,2.25,5,5V292.257z"/>
        <path style="fill:#AEC1ED;" d="M367.943,292.257v-41.244c0-2.75,2.25-5,5-5h-19.842c-2.75,0-5,2.25-5,5v41.244c0,2.75,2.25,5,5,5
            h19.842C370.193,297.257,367.943,295.007,367.943,292.257z"/>
        <path style="fill:#C3DDF4;" d="M461.757,409.416c0,2.75-2.25,5-5,5H371.1c-2.75,0-5-2.25-5-5v-16.91c0-2.75,2.25-5,5-5h85.657
            c2.75,0,5,2.25,5,5L461.757,409.416L461.757,409.416z"/>
        <path style="fill:#AEC1ED;" d="M385.942,409.416v-16.91c0-2.75,2.25-5,5-5H371.1c-2.75,0-5,2.25-5,5v16.91c0,2.75,2.25,5,5,5h19.842
            C388.192,414.416,385.942,412.166,385.942,409.416z"/>
    </symbol>
    <symbol id="github" viewBox="0 0 2350 2314.8"><path d="M1175,0C525.8,0,0,525.8,0,1175c0,552.2,378.9,1010.5,890.1,1139.7c-5.9-14.7-8.8-35.3-8.8-55.8v-199.8H734.4c-79.3,0-152.8-35.2-185.1-99.9c-38.2-70.5-44.1-179.2-141-246.8c-29.4-23.5-5.9-47,26.4-44.1c61.7,17.6,111.6,58.8,158.6,120.4c47,61.7,67.6,76.4,155.7,76.4c41.1,0,105.7-2.9,164.5-11.8c32.3-82.3,88.1-155.7,155.7-190.9c-393.6-47-581.6-240.9-581.6-505.3c0-114.6,49.9-223.3,132.2-317.3c-26.4-91.1-61.7-279.1,11.8-352.5c176.3,0,282,114.6,308.4,143.9c88.1-29.4,185.1-47,284.9-47c102.8,0,196.8,17.6,284.9,47c26.4-29.4,132.2-143.9,308.4-143.9c70.5,70.5,38.2,261.4,8.8,352.5c82.3,91.1,129.3,202.7,129.3,317.3c0,264.4-185.1,458.3-575.7,499.4c108.7,55.8,185.1,214.4,185.1,331.9V2256c0,8.8-2.9,17.6-2.9,26.4C2021,2123.8,2350,1689.1,2350,1175C2350,525.8,1824.2,0,1175,0L1175,0z"/></symbol>
    <symbol id="optimization" viewBox="0 0 512 512"><g><g><path d="m5.02 102.637-5.02 9.361v261.409c0 17.25 13.984 31.234 31.234 31.234h361.412c17.25 0 31.234-13.984 31.234-31.234v-261.409l-5.02-9.361z" fill="#d8eafb"/></g><g><path d="m372.737 102.637v219.626c0 17.25-13.984 31.234-31.234 31.234h-341.503v19.91c0 17.25 13.984 31.234 31.234 31.234h361.412c17.25 0 31.234-13.984 31.234-31.234v-261.409l-5.02-9.361z" fill="#b3d8fb"/></g><g><path d="m392.647 25.8h-361.413c-17.25 0-31.234 13.984-31.234 31.234v54.964h423.881v-54.964c0-17.25-13.984-31.234-31.234-31.234z" fill="#1690fb"/></g><g><path d="m392.647 25.8h-19.91v86.198h51.145v-54.964c-.001-17.25-13.985-31.234-31.235-31.234z" fill="#0571f9"/></g><g><g><circle cx="52.551" cy="68.899" fill="#b3d8fb" r="14.013"/></g><g><circle cx="95.658" cy="68.899" fill="#b3d8fb" r="14.013"/></g><g><circle cx="138.765" cy="68.899" fill="#b3d8fb" r="14.013"/></g></g><g><g><g><path d="m123.48 275.405c-.927 0-1.868-.172-2.781-.535-3.865-1.537-5.752-5.916-4.214-9.78l41.883-105.305c1.537-3.865 5.917-5.748 9.779-4.214 3.865 1.537 5.752 5.916 4.214 9.78l-41.883 105.305c-1.173 2.952-4.005 4.749-6.998 4.749z" fill="#465961"/></g></g><g><g><path d="m206.721 270.356c-1.281 0-2.579-.327-3.767-1.016-3.599-2.085-4.827-6.691-2.742-10.29l25.895-44.705-25.827-42.84c-2.147-3.561-1.001-8.189 2.561-10.336 3.56-2.147 8.19-1.002 10.336 2.561l28.125 46.651c1.418 2.351 1.443 5.286.068 7.662l-28.125 48.556c-1.397 2.41-3.926 3.756-6.524 3.757z" fill="#465961"/></g></g><g><g><path d="m80.684 270.356c-2.598 0-5.127-1.347-6.523-3.757l-28.125-48.556c-1.376-2.376-1.35-5.311.068-7.662l28.125-46.651c2.147-3.562 6.778-4.707 10.336-2.561 3.562 2.147 4.708 6.775 2.561 10.336l-25.827 42.84 25.895 44.705c2.085 3.599.857 8.206-2.742 10.29-1.189.688-2.488 1.015-3.768 1.016z" fill="#465961"/></g></g></g><g><g><path d="m463.518 339.329h-21.11c-2.348-9.377-6.052-18.212-10.896-26.29l14.931-14.932c2.955-2.954 2.955-7.744 0-10.698l-22.857-22.857c-2.954-2.955-7.744-2.955-10.698 0l-14.932 14.931c-8.077-4.845-16.914-8.549-26.29-10.896v-21.11c0-4.178-3.387-7.565-7.565-7.565h-32.325c-4.178 0-7.565 3.387-7.565 7.565v21.11c-9.376 2.348-18.213 6.052-26.29 10.896l-14.932-14.931c-2.954-2.955-7.744-2.955-10.698 0l-22.857 22.857c-2.954 2.954-2.954 7.744 0 10.698l14.931 14.932c-4.845 8.077-8.549 16.913-10.896 26.29h-21.11c-4.178 0-7.565 3.387-7.565 7.565v32.325c0 4.178 3.387 7.565 7.565 7.565h21.11c2.348 9.377 6.052 18.213 10.896 26.29l-14.931 14.931c-2.954 2.955-2.954 7.744 0 10.698l22.857 22.857c2.954 2.955 7.744 2.955 10.698 0l14.932-14.931c8.077 4.845 16.914 8.549 26.29 10.896v21.11c0 4.178 3.387 7.565 7.565 7.565h32.325c4.178 0 7.565-3.387 7.565-7.565v-21.11c9.376-2.348 18.213-6.052 26.29-10.896l14.932 14.931c2.954 2.955 7.744 2.955 10.698 0l22.857-22.857c2.955-2.954 2.955-7.744 0-10.698l-14.931-14.931c4.845-8.077 8.549-16.914 10.896-26.29h21.11c4.178 0 7.565-3.387 7.565-7.565v-32.325c0-4.178-3.387-7.565-7.565-7.565zm-115.578 62.685c-21.515 0-38.958-17.442-38.958-38.958 0-21.515 17.442-38.958 38.958-38.958 21.515 0 38.958 17.442 38.958 38.958-.001 21.516-17.443 38.958-38.958 38.958z" fill="#7c8b96"/></g><g><path d="m463.518 339.329h-21.115c-2.348-9.375-6.051-18.21-10.896-26.285l14.936-14.936c2.955-2.954 2.955-7.744 0-10.698l-22.857-22.857c-2.954-2.955-7.744-2.955-10.698 0l-14.943 14.943c-8.179-4.903-17.131-8.65-26.639-10.992 24.7 17.666 40.817 46.567 40.817 79.251 0 53.789-43.605 97.394-97.394 97.394-8.057 0-15.879-.997-23.367-2.841 9.763 6.983 20.868 12.203 32.851 15.211v21.117c0 4.178 3.387 7.565 7.565 7.565h32.325c4.178 0 7.565-3.387 7.565-7.565v-21.11c9.376-2.348 18.213-6.052 26.29-10.896l14.932 14.931c2.954 2.955 7.744 2.955 10.698 0l22.857-22.857c2.955-2.954 2.955-7.744 0-10.698l-14.931-14.931c4.844-8.077 8.549-16.914 10.896-26.29h21.11c4.178 0 7.565-3.387 7.565-7.565v-32.325c-.002-4.179-3.389-7.566-7.567-7.566z" fill="#465961"/></g></g><g><g><g><path d="m509.561 194.516-10.13-4.138c.711-4.96.666-9.926-.076-14.751l10.092-4.238c1.997-.838 2.936-3.137 2.097-5.133l-6.488-15.449c-.838-1.997-3.137-2.936-5.133-2.097l-10.092 4.238c-2.926-3.908-6.44-7.417-10.479-10.382l4.138-10.13c.819-2.005-.142-4.294-2.147-5.113l-15.511-6.336c-2.005-.819-4.294.143-5.113 2.147l-4.138 10.13c-4.96-.711-9.926-.666-14.751.075l-4.238-10.092c-.838-1.997-3.137-2.936-5.133-2.097l-15.449 6.488c-1.997.838-2.936 3.137-2.097 5.133l4.238 10.092c-3.908 2.926-7.417 6.44-10.382 10.479l-10.13-4.138c-2.005-.819-4.294.143-5.113 2.147l-6.336 15.511c-.819 2.005.142 4.294 2.147 5.113l10.13 4.138c-.711 4.96-.666 9.926.075 14.751l-10.092 4.238c-1.997.839-2.936 3.137-2.097 5.134l6.488 15.449c.839 1.997 3.137 2.936 5.133 2.097l10.092-4.238c2.926 3.908 6.44 7.417 10.48 10.382l-4.138 10.13c-.819 2.005.142 4.294 2.147 5.113l15.511 6.336c2.005.819 4.294-.143 5.113-2.147l4.138-10.13c4.96.711 9.926.666 14.751-.075l4.238 10.092c.838 1.997 3.137 2.936 5.133 2.097l15.449-6.488c1.997-.838 2.936-3.137 2.097-5.134l-4.238-10.092c3.908-2.926 7.417-6.44 10.382-10.479l10.13 4.138c2.005.819 4.294-.142 5.113-2.147l6.336-15.511c.819-2.005-.143-4.295-2.147-5.113zm-67.749 7.424c-10.324-4.217-15.275-16.006-11.058-26.33s16.006-15.275 26.33-11.058 15.275 16.006 11.058 26.33-16.005 15.275-26.33 11.058z" fill="#7c8b96"/></g></g><g><g><path d="m509.561 194.516-10.132-4.139c.711-4.959.666-9.924-.076-14.749l10.095-4.24c1.997-.838 2.936-3.137 2.097-5.133l-6.488-15.449c-.838-1.997-3.137-2.936-5.133-2.097l-10.1 4.242c-2.964-3.956-6.525-7.509-10.628-10.496 8.39 13.319 10.458 30.346 4.051 46.03-10.544 25.811-40.015 38.188-65.826 27.644-3.866-1.579-7.424-3.591-10.656-5.944 3.316 5.264 7.622 9.946 12.782 13.738l-4.139 10.133c-.819 2.005.142 4.294 2.147 5.113l15.511 6.336c2.005.819 4.294-.143 5.113-2.147l4.138-10.13c4.96.711 9.926.666 14.751-.075l4.238 10.092c.838 1.997 3.137 2.936 5.133 2.097l15.449-6.488c1.997-.838 2.936-3.137 2.097-5.134l-4.238-10.092c3.908-2.926 7.417-6.44 10.382-10.479l10.13 4.138c2.005.819 4.294-.142 5.113-2.147l6.336-15.511c.819-2.005-.143-4.295-2.147-5.113z" fill="#465961"/></g></g></g></g></symbol>
    <symbol id="responsive-valid" viewBox="0 0 512 512"><g><polygon fill="#41AD49" points="434.8,49 174.2,309.7 76.8,212.3 0,289.2 174.1,463.3 196.6,440.9 196.6,440.9 511.7,125.8 434.8,49"/></g></symbol>
    <symbol id="cross-browser" viewBox="0 0 48 48"><path fill="#4caf50" d="M44,24c0,11.044-8.956,20-20,20S4,35.044,4,24S12.956,4,24,4S44,12.956,44,24z"/><path fill="#ffc107" d="M24,4v20l8,4l-8.843,16c0.317,0,0.526,0,0.843,0c11.053,0,20-8.947,20-20S35.053,4,24,4z"/><path fill="#4caf50" d="M44,24c0,11.044-8.956,20-20,20S4,35.044,4,24S12.956,4,24,4S44,12.956,44,24z"/><path fill="#ffc107" d="M24,4v20l8,4l-8.843,16c0.317,0,0.526,0,0.843,0c11.053,0,20-8.947,20-20S35.053,4,24,4z"/><path fill="#f44336" d="M41.84,15H24v13l-3-1L7.16,13.26H7.14C10.68,7.69,16.91,4,24,4C31.8,4,38.55,8.48,41.84,15z"/><path fill="#dd2c00" d="M7.158,13.264l8.843,14.862L21,27L7.158,13.264z"/><path fill="#558b2f" d="M23.157,44l8.934-16.059L28,25L23.157,44z"/><path fill="#f9a825" d="M41.865,15H24l-1.579,4.58L41.865,15z"/><path fill="#fff" d="M33,24c0,4.969-4.031,9-9,9s-9-4.031-9-9s4.031-9,9-9S33,19.031,33,24z"/><path fill="#2196f3" d="M31,24c0,3.867-3.133,7-7,7s-7-3.133-7-7s3.133-7,7-7S31,20.133,31,24z"/></symbol>
    <symbol id="svg" viewBox="0 0 512 512"><g><polygon points="366.5,15.8 366.5,103.9 460.8,103.9  "/><path d="M257.3,361.9l28.5,46.2l-28.5,46.2h231.5v-92.4H257.3z M340.4,429.5c-3.2,2.4-7.3,3.6-12.4,3.6c-4.9,0-9.2-1.3-12.9-3.9   c-3.7-2.6-5.5-6.3-5.3-11.1l0.1-0.2h7.8c0,2.9,1,5.1,3,6.6c2,1.5,4.5,2.2,7.4,2.2c2.9,0,5.1-0.6,6.7-1.8c1.6-1.2,2.4-2.9,2.4-4.9   c0-2-0.7-3.7-2.2-5c-1.4-1.3-4-2.4-7.6-3.5c-5.2-1.4-9.3-3.3-12.1-5.7c-2.8-2.3-4.3-5.4-4.3-9.2c0-3.9,1.6-7.1,4.7-9.7   c3.1-2.5,7.1-3.8,12-3.8c5.3,0,9.5,1.4,12.6,4.2c3.1,2.8,4.7,6.3,4.6,10.4l-0.1,0.2h-7.8c0-2.6-0.9-4.6-2.6-6.1   c-1.7-1.5-4-2.3-6.8-2.3c-2.7,0-4.8,0.6-6.3,1.9c-1.5,1.3-2.2,3-2.2,5c0,1.9,0.8,3.4,2.4,4.6c1.6,1.2,4.3,2.4,8.1,3.5   c5.1,1.4,9,3.4,11.6,5.8c2.7,2.5,4,5.6,4,9.4C345.1,423.9,343.5,427.1,340.4,429.5z M375.9,432.4h-7.7l-17.3-48.6h8.6l11.6,35.4   l0.9,3.5h0.2l0.8-3.5l11.6-35.5h8.6L375.9,432.4z M436.5,425.8c-1.3,1.9-3.5,3.6-6.4,5.1c-2.9,1.5-6.7,2.2-11.3,2.2   c-5.7,0-10.5-1.9-14.2-5.6c-3.7-3.7-5.6-8.5-5.6-14.4V403c0-5.9,1.8-10.7,5.4-14.4c3.6-3.7,8.2-5.6,13.8-5.6   c5.7,0,10.1,1.4,13.2,4.3c3.2,2.8,4.7,6.6,4.6,11.1l-0.1,0.2h-7.7c0-2.7-0.9-4.9-2.6-6.6s-4.1-2.5-7.3-2.5c-3.4,0-6.1,1.3-8.1,3.8   c-2.1,2.5-3.1,5.7-3.1,9.6v10.2c0,3.9,1.1,7.1,3.2,9.7c2.1,2.5,4.9,3.8,8.4,3.8c2.6,0,4.7-0.3,6.2-0.9c1.5-0.6,2.7-1.3,3.4-2.2v-10   h-10.2v-6.1h18.3V425.8z"/><polygon points="123.4,167.5 123.4,114.6 78,114.6 78,105.1 23.2,105.1 23.2,177 78,177 78,167.5  "/><polygon points="123.4,397.4 123.4,344.5 78,344.5 78,335 23.2,335 23.2,406.9 78,406.9 78,397.4  "/><polygon points="274.7,408.1 240.3,352.4 466.6,352.4 466.6,114.7 355.7,114.7 355.7,6 78,6 78,105.1 132.9,105.1 132.9,177    78,177 78,335 132.9,335 132.9,406.9 78,406.9 78,506 466.6,506 466.6,463.8 240.3,463.8  "/></g></symbol>
    <symbol id="photoshop" viewBox="0 0 512 512"><g id="_x32_3_x2C__Photoshop_x2C__Adobe"><g><rect height="510.578" style="fill:#4FC7EC;" width="510.576" x="1.207" y="0.711"/><rect height="465.646" style="fill:#242238;" width="465.646" x="23.669" y="23.179"/><g><g><g><g id="XMLID_239_"><g><path d="M125.389,124.051c0-1.76,0.302-2.459,1.811-2.459         c11.48-0.354,34.144-0.703,57.105-0.703c59.215,0,81.802,34.454,82.104,75.205c0,55.848-41.623,77.024-86.033,77.024         c-8.459,0-16.616,0-18.734,0v79.795c0,2.108-0.601,2.813-2.114,2.813h-32.026c-1.509,0-2.114-0.704-2.114-2.459V124.051z          M161.643,239.047c2.42,0.35,6.95,0.699,19.642,0.699c23.864,0,46.826-6.801,46.826-41.929         c0-28.102-15.406-42.536-43.805-42.536c-11.783,0-20.243,0.35-22.663,0.704V239.047z" id="XMLID_240_" style="fill:#4FC7EC;"/></g></g><g id="XMLID_236_"><g><path d="M341.819,212.791c-14.549,0-18.405,9.099-18.405,15.773         c0,8.433,3.856,12.997,26.123,23.537c30.577,14.753,43.64,27.752,43.64,53.04c0,35.129-22.859,55.115-55.517,55.115         c-15.733,0-35.585-1.5-48.054-10.632c-1.188-0.704-1.782-1.756-1.782-3.516v-32.316c0-1.756,1.189-2.459,2.08-1.756         c15.436,11.592,32.652,14.886,48.088,14.886c13.658,0,18.406-9.103,18.406-16.829c0-9.133-3.299-14.404-24.675-24.59         c-30.577-14.754-43.306-27.432-43.306-53.074c0-28.455,21.337-51.958,56.368-51.958c18.107,0,30.871,0.485,39.186,6.102         c1.482,1.406,1.781,2.459,1.781,4.568v28.804c0,2.105-1.188,3.163-2.672,2.105         C372.393,215.028,357.255,212.791,341.819,212.791z" id="XMLID_237_" style="fill:#4FC7EC;"/></g></g></g></g></g></g></g><g id="Layer_1"/></symbol>
    <symbol id="adobexd" viewBox="0 0 512 512"><g id="_x33__x2C__XD_x2C__Adobe"><g><rect height="510.575" style="fill:#FF26BE;" width="510.576" x="1.207" y="0.712"/><rect height="465.646" style="fill:#2E001F;" width="465.646" x="23.669" y="23.179"/><g><g><path d="M266.262,137.396h-39.884l-42.813,89.544l-43.388-89.544H99.091l58.146,116.27L97.016,372.721      h40.6l43.58-91.24l44.086,91.24h43.945l-62.07-120.454L266.262,137.396z M376.519,137.396v59.837c0,0-6.899,0-11.493,0      c-39.22,0-86.634,25.292-86.634,89.894c0,49.941,25.304,87.479,79.201,87.479c39.685,0,58.381-13.728,58.381-13.728V137.396      H376.519z M376.48,340.231c0,0-4.543,1.998-15.261,1.998s-43.601-4.722-43.601-56.863c0-52.136,37.788-56.317,46.869-56.317      c9.086,0,11.992,2.545,11.992,2.545V340.231z" style="fill:#FFD9F2;"/></g></g></g></g><g id="Layer_1"/></symbol>
    <symbol id="figma" viewBox="0 0 200 300"><path fill="#0acf83" d="M50 300c27.6 0 50-22.4 50-50v-50H50c-27.6 0-50 22.4-50 50s22.4 50 50 50z" /><path fill="#a259ff" d="M0 150c0-27.6 22.4-50 50-50h50v100H50c-27.6 0-50-22.4-50-50z" /><path fill="#f24e1e" d="M0 50C0 22.4 22.4 0 50 0h50v100H50C22.4 100 0 77.6 0 50z" /><path fill="#ff7262" d="M100 0h50c27.6 0 50 22.4 50 50s-22.4 50-50 50h-50V0z" /><path fill="#1abcfe" d="M200 150c0 27.6-22.4 50-50 50s-50-22.4-50-50 22.4-50 50-50 50 22.4 50 50z" /></symbol>
    <symbol id="avocode" viewBox="0 0 1866 2500"><path fill="#00BC87" d="M933,5.9C456.1,5.9,0,887.1,0,1561.1c0,516.1,416.9,933,933,933s933-416.9,933-933C1866,887.1,1409.9,5.9,933,5.9z M933,2027.6c-257.1,0-466.5-209.4-466.5-466.5c0-346.3,236.2-777.7,466.5-777.7s466.5,431.4,466.5,777.7C1399.5,1818.2,1190.1,2027.6,933,2027.6z" /></symbol>
</svg>