<svg xmlns="http://www.w3.org/2000/svg">
    <symbol id="github" viewBox="0 0 2350 2314.8">
       <path d="M1175,0C525.8,0,0,525.8,0,1175c0,552.2,378.9,1010.5,890.1,1139.7c-5.9-14.7-8.8-35.3-8.8-55.8v-199.8H734.4
	c-79.3,0-152.8-35.2-185.1-99.9c-38.2-70.5-44.1-179.2-141-246.8c-29.4-23.5-5.9-47,26.4-44.1c61.7,17.6,111.6,58.8,158.6,120.4
	c47,61.7,67.6,76.4,155.7,76.4c41.1,0,105.7-2.9,164.5-11.8c32.3-82.3,88.1-155.7,155.7-190.9c-393.6-47-581.6-240.9-581.6-505.3
	c0-114.6,49.9-223.3,132.2-317.3c-26.4-91.1-61.7-279.1,11.8-352.5c176.3,0,282,114.6,308.4,143.9c88.1-29.4,185.1-47,284.9-47
	c102.8,0,196.8,17.6,284.9,47c26.4-29.4,132.2-143.9,308.4-143.9c70.5,70.5,38.2,261.4,8.8,352.5c82.3,91.1,129.3,202.7,129.3,317.3
	c0,264.4-185.1,458.3-575.7,499.4c108.7,55.8,185.1,214.4,185.1,331.9V2256c0,8.8-2.9,17.6-2.9,26.4
	C2021,2123.8,2350,1689.1,2350,1175C2350,525.8,1824.2,0,1175,0L1175,0z"/>
    </symbol>
    <symbol id="vk" viewBox="0 0 30 30">
        <path clip-rule="evenodd" d="M16,24c1,0,1-1.441,1-2c0-1,1-2,2-2s2.715,1.715,4,3c1,1,1,1,2,1s3,0,3,0  s2-0.076,2-2c0-0.625-0.685-1.685-3-4c-2-2-3.026-0.967,0-5c1.843-2.456,3.184-4.681,2.954-5.323C29.734,7.064,24.608,6.088,24,7  c-2,3-2.367,3.735-3,5c-1,2-1.099,3-2,3c-0.909,0-1-1.941-1-3c0-3.306,0.479-5.644-1-6c0,0-2,0-3,0c-1.61,0-3,1-3,1  s-1.241,0.968-1,1c0.298,0.04,2-0.414,2,1c0,1,0,2,0,2s0.009,4-1,4c-1,0-3-4-5-7C5.215,6.823,5,7,4,7C2.928,7,2.001,7.042,1,7.042  C0,7.042-0.128,7.679,0,8c2,5,3.437,8.14,7.237,12.096C10.722,23.725,13.05,23.918,15,24C15.5,24.021,15,24,16,24z" fill-rule="evenodd" id="VK"/>
    </symbol>
    <symbol id="telegram" viewBox="0 0 512 512">
        <g id="comp_x5F_335-telegram"><g><path d="M484.689,98.231l-69.417,327.37c-5.237,23.105-18.895,28.854-38.304,17.972L271.2,365.631l-51.034,49.086    c-5.647,5.647-10.372,10.372-21.256,10.372l7.598-107.722L402.539,140.23c8.523-7.598-1.848-11.809-13.247-4.21L146.95,288.614    L42.619,255.96c-22.694-7.086-23.104-22.695,4.723-33.579L455.423,65.166C474.316,58.081,490.85,69.375,484.689,98.231z"/></g></g><g id="Layer_1"/>
    </symbol>
    <symbol id="whatsapp" viewBox="0 0 512 512">
        <path d="M373.295,307.064c-6.37,-3.188 -37.687,-18.596 -43.526,-20.724c-5.838,-2.126 -10.084,-3.187 -14.331,3.188c-4.246,6.376 -16.454,20.725 -20.17,24.976c-3.715,4.251 -7.431,4.785 -13.8,1.594c-6.37,-3.187 -26.895,-9.913 -51.225,-31.616c-18.935,-16.89 -31.72,-37.749 -35.435,-44.126c-3.716,-6.377 -0.397,-9.824 2.792,-13c2.867,-2.854 6.371,-7.44 9.555,-11.16c3.186,-3.718 4.247,-6.377 6.37,-10.626c2.123,-4.252 1.062,-7.971 -0.532,-11.159c-1.591,-3.188 -14.33,-34.542 -19.638,-47.298c-5.171,-12.419 -10.422,-10.737 -14.332,-10.934c-3.711,-0.184 -7.963,-0.223 -12.208,-0.223c-4.246,0 -11.148,1.594 -16.987,7.969c-5.838,6.377 -22.293,21.789 -22.293,53.14c0,31.355 22.824,61.642 26.009,65.894c3.185,4.252 44.916,68.59 108.816,96.181c15.196,6.564 27.062,10.483 36.312,13.418c15.259,4.849 29.145,4.165 40.121,2.524c12.238,-1.827 37.686,-15.408 42.995,-30.286c5.307,-14.882 5.307,-27.635 3.715,-30.292c-1.592,-2.657 -5.838,-4.251 -12.208,-7.44m-116.224,158.693l-0.086,0c-38.022,-0.015 -75.313,-10.23 -107.845,-29.535l-7.738,-4.592l-80.194,21.037l21.405,-78.19l-5.037,-8.017c-21.211,-33.735 -32.414,-72.726 -32.397,-112.763c0.047,-116.825 95.1,-211.87 211.976,-211.87c56.595,0.019 109.795,22.088 149.801,62.139c40.005,40.05 62.023,93.286 62.001,149.902c-0.048,116.834 -95.1,211.889 -211.886,211.889m180.332,-392.224c-48.131,-48.186 -112.138,-74.735 -180.335,-74.763c-140.514,0 -254.875,114.354 -254.932,254.911c-0.018,44.932 11.72,88.786 34.03,127.448l-36.166,132.102l135.141,-35.45c37.236,20.31 79.159,31.015 121.826,31.029l0.105,0c140.499,0 254.87,-114.366 254.928,-254.925c0.026,-68.117 -26.467,-132.166 -74.597,-180.352" id="WhatsApp-Logo"/>
    </symbol>
</svg>