<?xml version="1.0" standalone="no"?>
<!DOCTYPE svg PUBLIC "-//W3C//DTD SVG 20010904//EN"
 "http://www.w3.org/TR/2001/REC-SVG-20010904/DTD/svg10.dtd">
<svg version="1.0" xmlns="http://www.w3.org/2000/svg"
 width="700.000000pt" height="700.000000pt" viewBox="0 0 700.000000 700.000000"
 preserveAspectRatio="xMidYMid meet">
<metadata>
Created by potrace 1.11, written by Peter Selinger 2001-2013
</metadata>
<g transform="translate(0.000000,700.000000) scale(0.100000,-0.100000)"
fill="#000000" stroke="none">
<path d="M3549 6996 c-2 -2 -40 -6 -84 -10 -360 -28 -720 -116 -1065 -261
-850 -358 -1538 -1056 -1883 -1910 -57 -142 -140 -400 -153 -475 -3 -14 -8
-34 -11 -45 -8 -24 -6 -15 -31 -150 -12 -60 -24 -132 -27 -160 -3 -27 -8 -63
-10 -80 -2 -16 -7 -52 -10 -80 -11 -79 -13 -491 -4 -590 15 -162 42 -358 59
-425 5 -19 12 -51 15 -70 3 -19 8 -43 11 -52 3 -9 7 -26 9 -38 8 -39 83 -284
106 -345 13 -33 24 -62 24 -65 1 -3 9 -22 18 -44 9 -21 17 -40 17 -43 0 -12
131 -281 178 -365 42 -74 118 -196 161 -258 24 -36 54 -78 65 -95 12 -16 23
-32 26 -35 3 -3 21 -25 40 -50 151 -197 504 -546 650 -640 12 -8 35 -24 49
-36 146 -118 497 -316 721 -407 226 -91 477 -168 648 -198 28 -5 78 -14 110
-19 195 -35 319 -44 567 -45 188 0 343 7 430 20 17 2 49 6 72 9 22 3 52 7 65
10 12 3 37 7 53 10 108 16 357 75 370 87 3 3 -14 12 -37 19 -419 131 -852 367
-1193 652 -170 141 -409 389 -538 558 -171 224 -319 474 -430 730 -16 36 -33
74 -38 85 -40 89 -112 315 -153 480 -31 128 -40 172 -52 245 -2 14 -6 39 -9
55 -2 17 -7 48 -10 70 -3 22 -7 54 -10 70 -24 163 -24 597 0 785 1 14 6 48 9
75 4 28 8 61 11 75 3 14 7 39 10 55 90 549 349 1131 697 1566 29 36 73 90 98
120 58 70 300 312 369 369 30 25 59 50 65 56 22 21 212 162 286 211 243 162
559 316 829 403 86 28 108 38 90 43 -13 3 -55 14 -94 25 -38 11 -95 25 -125
31 -30 6 -66 14 -80 16 -14 3 -41 8 -60 11 -19 3 -46 7 -60 10 -14 2 -61 9
-105 14 -44 6 -98 13 -120 16 -44 6 -530 15 -536 10z"/>
<path d="M4738 5925 c-2 -1 -34 -5 -73 -9 -101 -9 -175 -23 -303 -57 -153 -40
-200 -58 -357 -136 -400 -200 -741 -573 -898 -983 -13 -36 -28 -74 -32 -85 -5
-11 -9 -24 -11 -30 -42 -141 -71 -279 -81 -382 -9 -99 -9 -320 1 -398 17 -144
45 -278 65 -311 10 -18 10 -18 11 0 0 28 85 237 132 325 188 351 476 631 833
808 161 80 380 150 530 169 22 3 51 8 65 11 46 9 374 12 445 3 282 -35 518
-115 760 -258 224 -132 446 -344 597 -572 78 -117 173 -307 209 -417 13 -40
27 -73 30 -73 10 0 36 115 65 290 9 52 11 348 3 415 -14 116 -26 184 -41 240
-5 22 -12 49 -14 60 -8 46 -76 228 -115 311 -50 105 -137 253 -185 314 -159
201 -300 334 -489 460 -83 56 -303 170 -327 170 -8 0 -18 4 -24 9 -11 12 -224
77 -278 85 -21 4 -41 8 -45 10 -3 2 -31 7 -61 10 -30 4 -68 9 -84 12 -29 6
-322 14 -328 9z"/>
<path d="M4680 4274 c-41 -7 -95 -19 -119 -26 l-44 -13 69 -24 c173 -60 351
-171 492 -305 316 -302 470 -716 429 -1151 -47 -486 -347 -913 -793 -1125 -47
-23 -111 -50 -142 -59 l-56 -18 38 -13 c22 -7 85 -20 142 -30 164 -27 337 -19
556 25 52 10 195 65 279 106 129 64 254 154 364 264 262 262 405 600 409 965
1 157 -7 237 -39 361 -85 336 -289 630 -572 820 -148 100 -326 175 -508 215
-106 23 -399 28 -505 8z"/>
</g>
</svg>
